<svg xmlns="http://www.w3.org/2000/svg" viewBox="0 0 1200 500" width="1200" height="500" preserveAspectRatio="xMidYMid slice">
  <defs>
    <linearGradient id="bg" x1="0" y1="0" x2="0" y2="1">
      <stop offset="0" stop-color="#4a3320"/>
      <stop offset="1" stop-color="#2e1f12"/>
    </linearGradient>
  </defs>
  <rect width="1200" height="500" fill="url(#bg)"/>
  <g opacity="0.22" fill="#d9822b">
    <circle cx="150" cy="120" r="70"/>
    <circle cx="1050" cy="380" r="110"/>
    <circle cx="950" cy="90" r="45"/>
    <circle cx="280" cy="420" r="55"/>
  </g>
  <g opacity="0.35" transform="translate(520,170)">
    <path d="M20 40h100a6 6 0 0 1 6 6v20a52 52 0 0 1-52 52h-8a52 52 0 0 1-52-52V46a6 6 0 0 1 6-6z" fill="#f5e9d8"/>
    <path d="M126 52h18a24 24 0 0 1 0 48h-14" stroke="#f5e9d8" stroke-width="10" fill="none"/>
    <path d="M50 0c0 12-12 15-12 27M75 -6c0 12-12 15-12 27M100 0c0 12-12 15-12 27" stroke="#f5e9d8" stroke-width="9" stroke-linecap="round" fill="none"/>
  </g>
</svg>
