<svg xmlns="http://www.w3.org/2000/svg" viewBox="0 0 220 48" width="220" height="48">
  <g fill="none">
    <circle cx="24" cy="24" r="20" fill="#d9822b"/>
    <path d="M14 20h16a2 2 0 0 1 2 2v4a8 8 0 0 1-8 8h-4a8 8 0 0 1-8-8v-4a2 2 0 0 1 2-2z" fill="#fff"/>
    <path d="M32 22h3a4 4 0 0 1 0 8h-2.5" stroke="#fff" stroke-width="2" fill="none"/>
    <path d="M19 12c0 2-2 2.5-2 4.5M25 11c0 2-2 2.5-2 4.5" stroke="#fff" stroke-width="1.8" stroke-linecap="round" fill="none"/>
  </g>
  <text x="54" y="31" font-family="'Hiragino Kaku Gothic ProN','Yu Gothic',sans-serif" font-size="17" font-weight="700" fill="#4a3320">ひだまり珈琲</text>
</svg>
