<svg xmlns="http://www.w3.org/2000/svg" viewBox="0 0 400 300" width="400" height="300">
  <rect width="400" height="300" fill="#f4e7d3"/>
  <ellipse cx="200" cy="245" rx="110" ry="12" fill="#dcc8ab"/>
  <path d="M140 100h120a8 8 0 0 1 8 8v80a50 50 0 0 1-50 50h-36a50 50 0 0 1-50-50v-80a8 8 0 0 1 8-8z" fill="#fff"/>
  <rect x="150" y="130" width="100" height="70" rx="6" fill="#e8935a" opacity="0.85"/>
  <circle cx="175" cy="150" r="9" fill="#d94f4f"/>
  <circle cx="205" cy="168" r="8" fill="#f2c14e"/>
  <circle cx="228" cy="148" r="7" fill="#8bc06e"/>
  <path d="M266 116h18a26 26 0 0 1 0 52h-14" stroke="#fff" stroke-width="11" fill="none"/>
  <path d="M196 52c0 12-12 15-12 27" stroke="#cfa276" stroke-width="8" stroke-linecap="round" fill="none"/>
</svg>
